<svg xmlns="http://www.w3.org/2000/svg" xmlns:xlink="http://www.w3.org/1999/xlink" version="1.1" viewBox="0 0 1000 1000"><defs><mask id="mask_0"><rect width="100%" height="100%" fill="#fff"/><circle cx="500" cy="1200" r="900"/></mask><mask id="mask_1"><rect width="100%" height="100%" fill="#fff"/><circle cx="-47.282" cy="936.443" r="900"/></mask><mask id="mask_2"><rect width="100%" height="100%" fill="#fff"/><circle cx="-182.45" cy="344.235" r="900"/></mask><mask id="mask_3"><rect width="100%" height="100%" fill="#fff"/><circle cx="196.281" cy="-130.678" r="900"/></mask><mask id="mask_4"><rect width="100%" height="100%" fill="#fff"/><circle cx="803.719" cy="-130.678" r="900"/></mask><mask id="mask_5"><rect width="100%" height="100%" fill="#fff"/><circle cx="1182.45" cy="344.235" r="900"/></mask><mask id="mask_6"><rect width="100%" height="100%" fill="#fff"/><circle cx="1047.282" cy="936.443" r="900"/></mask><clipPath id="clip_0"><circle cx="-47.282" cy="936.443" r="850"/></clipPath><clipPath id="clip_1"><circle cx="-182.45" cy="344.235" r="850"/></clipPath><clipPath id="clip_2"><circle cx="196.281" cy="-130.678" r="850"/></clipPath><clipPath id="clip_3"><circle cx="803.719" cy="-130.678" r="850"/></clipPath><clipPath id="clip_4"><circle cx="1182.45" cy="344.235" r="850"/></clipPath><clipPath id="clip_5"><circle cx="1047.282" cy="936.443" r="850"/></clipPath><clipPath id="clip_6"><circle cx="500" cy="1200" r="850"/></clipPath></defs><circle id="circle_0" cx="500" cy="500" r="500" fill="#F06D63" clip-path="url(#clip_0)" mask="url(#mask_0)"/><circle id="circle_1" cx="500" cy="500" r="500" fill="#F69842" clip-path="url(#clip_1)" mask="url(#mask_1)"/><circle id="circle_2" cx="500" cy="500" r="500" fill="#F3CA4A" clip-path="url(#clip_2)" mask="url(#mask_2)"/><circle id="circle_3" cx="500" cy="500" r="500" fill="#95CA57" clip-path="url(#clip_3)" mask="url(#mask_3)"/><circle id="circle_4" cx="500" cy="500" r="500" fill="#2FB1E3" clip-path="url(#clip_4)" mask="url(#mask_4)"/><circle id="circle_5" cx="500" cy="500" r="500" fill="#A287BF" clip-path="url(#clip_5)" mask="url(#mask_5)"/><circle id="circle_6" cx="500" cy="500" r="500" fill="#F170AA" clip-path="url(#clip_6)" mask="url(#mask_6)"/></svg>